<svg width="175" height="175" viewBox="0 0 175 175" fill="none" xmlns="http://www.w3.org/2000/svg">
<rect x="0.334961" y="0.185059" width="174" height="174" rx="32" fill="#0561E2"/>
<circle cx="150.835" cy="102.685" r="2" fill="#D9D9D9"/>
<circle cx="27.835" cy="106.685" r="2" fill="#D9D9D9"/>
<circle cx="27.835" cy="100.058" r="2" fill="#D9D9D9"/>
<circle cx="24.8228" cy="96.0581" r="2" fill="#D9D9D9"/>
<circle opacity="0.4" cx="27.835" cy="92.0581" r="2" fill="#D9D9D9"/>
<circle cx="27.835" cy="88.0581" r="2" fill="#D9D9D9"/>
<circle cx="27.835" cy="84.0581" r="2" fill="#D9D9D9"/>
<circle cx="27.835" cy="80.0581" r="2" fill="#D9D9D9"/>
<circle opacity="0.4" cx="23.835" cy="80.0581" r="2" fill="#D9D9D9"/>
<circle opacity="0.4" cx="23.835" cy="84.0581" r="2" fill="#D9D9D9"/>
<circle opacity="0.4" cx="23.835" cy="100.058" r="2" fill="#D9D9D9"/>
<circle cx="27.835" cy="110.685" r="2" fill="#D9D9D9"/>
<circle cx="31.835" cy="114.685" r="2" fill="#D9D9D9"/>
<circle cx="35.835" cy="122.685" r="2" fill="#D9D9D9"/>
<circle cx="39.835" cy="122.685" r="2" fill="#D9D9D9"/>
<circle cx="43.835" cy="122.685" r="2" fill="#D9D9D9"/>
<circle cx="47.835" cy="122.685" r="2" fill="#D9D9D9"/>
<circle opacity="0.4" cx="51.835" cy="122.685" r="2" fill="#D9D9D9"/>
<circle opacity="0.4" cx="55.835" cy="122.685" r="2" fill="#D9D9D9"/>
<circle cx="79.835" cy="122.685" r="2" fill="#578FF0"/>
<circle cx="83.835" cy="122.685" r="2" fill="#578FF0"/>
<circle cx="95.835" cy="122.685" r="2" fill="#D9D9D9"/>
<circle cx="99.835" cy="122.685" r="2" fill="#D9D9D9"/>
<circle cx="39.835" cy="114.685" r="2" fill="#D9D9D9"/>
<circle opacity="0.4" cx="47.835" cy="114.685" r="2" fill="#D9D9D9"/>
<circle opacity="0.4" cx="35.835" cy="114.685" r="2" fill="#D9D9D9"/>
<circle cx="43.835" cy="114.685" r="2" fill="#D9D9D9"/>
<circle cx="51.835" cy="114.685" r="2" fill="#D9D9D9"/>
<circle cx="60.835" cy="47.6851" r="2" fill="#D9D9D9"/>
<circle cx="56.835" cy="47.6851" r="2" fill="#D9D9D9"/>
<circle cx="52.835" cy="47.6851" r="2" fill="#D9D9D9"/>
<circle cx="52.835" cy="43.6851" r="2" fill="#D9D9D9"/>
<circle cx="48.835" cy="43.6851" r="2" fill="#D9D9D9"/>
<circle cx="36.835" cy="50.6851" r="2" fill="#D9D9D9"/>
<circle cx="36.835" cy="54.6851" r="2" fill="#D9D9D9"/>
<circle cx="36.835" cy="58.6851" r="2" fill="#D9D9D9"/>
<circle cx="32.835" cy="58.6851" r="2" fill="#D9D9D9"/>
<circle cx="56.835" cy="43.6851" r="2" fill="#D9D9D9"/>
<circle cx="64.835" cy="35.6851" r="2" fill="#D9D9D9"/>
<circle cx="68.835" cy="39.6851" r="2" fill="#D9D9D9"/>
<circle cx="78.835" cy="31.6851" r="2" fill="#D9D9D9"/>
<circle cx="74.835" cy="23.6851" r="2" fill="#D9D9D9"/>
<circle cx="68.835" cy="23.6851" r="2" fill="#D9D9D9"/>
<circle cx="64.835" cy="31.6851" r="2" fill="#D9D9D9"/>
<circle cx="52.835" cy="35.6851" r="2" fill="#D9D9D9"/>
<circle cx="82.835" cy="31.6851" r="2" fill="#D9D9D9"/>
<circle cx="94.835" cy="27.6851" r="2" fill="#D9D9D9"/>
<circle cx="90.835" cy="35.6851" r="2" fill="#D9D9D9"/>
<circle cx="109.835" cy="31.6851" r="2" fill="#D9D9D9"/>
<circle cx="113.835" cy="31.6851" r="2" fill="#D9D9D9"/>
<circle cx="117.835" cy="35.6851" r="2" fill="#D9D9D9"/>
<circle cx="125.835" cy="43.6851" r="2" fill="#D9D9D9"/>
<circle cx="129.835" cy="43.6851" r="2" fill="#D9D9D9"/>
<circle cx="125.835" cy="39.6851" r="2" fill="#D9D9D9"/>
<circle cx="125.835" cy="47.6851" r="2" fill="#D9D9D9"/>
<circle cx="125.835" cy="51.6851" r="2" fill="#D9D9D9"/>
<circle cx="133.835" cy="51.6851" r="2" fill="#D9D9D9"/>
<circle cx="137.835" cy="51.6851" r="2" fill="#D9D9D9"/>
<circle cx="137.835" cy="47.6851" r="2" fill="#D9D9D9"/>
<circle cx="117.835" cy="39.6851" r="2" fill="#D9D9D9"/>
<circle opacity="0.4" cx="64.835" cy="47.6851" r="2" fill="#D9D9D9"/>
<circle opacity="0.4" cx="68.835" cy="35.6851" r="2" fill="#D9D9D9"/>
<circle opacity="0.4" cx="74.835" cy="31.6851" r="2" fill="#D9D9D9"/>
<circle opacity="0.4" cx="74.835" cy="27.6851" r="2" fill="#D9D9D9"/>
<circle opacity="0.4" cx="78.835" cy="23.6851" r="2" fill="#D9D9D9"/>
<circle opacity="0.4" cx="86.835" cy="31.6851" r="2" fill="#D9D9D9"/>
<circle opacity="0.4" cx="98.835" cy="31.6851" r="2" fill="#D9D9D9"/>
<circle opacity="0.4" cx="83.835" cy="47.6851" r="2" fill="#D9D9D9"/>
<circle opacity="0.4" cx="79.835" cy="47.6851" r="2" fill="#D9D9D9"/>
<circle opacity="0.4" cx="90.835" cy="31.6851" r="2" fill="#D9D9D9"/>
<circle opacity="0.4" cx="102.835" cy="31.6851" r="2" fill="#D9D9D9"/>
<circle opacity="0.4" cx="113.835" cy="35.6851" r="2" fill="#D9D9D9"/>
<circle opacity="0.4" cx="121.835" cy="39.6851" r="2" fill="#D9D9D9"/>
<circle opacity="0.4" cx="121.835" cy="35.6851" r="2" fill="#D9D9D9"/>
<circle opacity="0.4" cx="99.835" cy="23.6851" r="2" fill="#D9D9D9"/>
<circle opacity="0.4" cx="106.835" cy="27.6851" r="2" fill="#D9D9D9"/>
<circle opacity="0.4" cx="129.835" cy="51.6851" r="2" fill="#D9D9D9"/>
<circle opacity="0.4" cx="133.835" cy="47.6851" r="2" fill="#D9D9D9"/>
<circle opacity="0.4" cx="141.835" cy="55.6851" r="2" fill="#D9D9D9"/>
<circle opacity="0.4" cx="137.835" cy="55.6851" r="2" fill="#D9D9D9"/>
<circle opacity="0.4" cx="94.835" cy="31.6851" r="2" fill="#D9D9D9"/>
<circle opacity="0.4" cx="64.835" cy="27.6851" r="2" fill="#D9D9D9"/>
<circle opacity="0.4" cx="60.835" cy="31.6851" r="2" fill="#D9D9D9"/>
<circle opacity="0.4" cx="60.835" cy="43.6851" r="2" fill="#D9D9D9"/>
<circle opacity="0.4" cx="64.835" cy="43.6851" r="2" fill="#D9D9D9"/>
<circle opacity="0.4" cx="68.835" cy="43.6851" r="2" fill="#D9D9D9"/>
<circle opacity="0.4" cx="64.835" cy="39.6851" r="2" fill="#D9D9D9"/>
<circle opacity="0.4" cx="60.835" cy="39.6851" r="2" fill="#D9D9D9"/>
<circle opacity="0.4" cx="52.835" cy="39.6851" r="2" fill="#D9D9D9"/>
<circle opacity="0.4" cx="44.835" cy="39.6851" r="2" fill="#D9D9D9"/>
<circle opacity="0.4" cx="56.835" cy="35.6851" r="2" fill="#D9D9D9"/>
<circle opacity="0.4" cx="72.835" cy="39.6851" r="2" fill="#D9D9D9"/>
<circle opacity="0.4" cx="76.835" cy="39.6851" r="2" fill="#D9D9D9"/>
<circle opacity="0.4" cx="48.835" cy="47.6851" r="2" fill="#D9D9D9"/>
<circle opacity="0.4" cx="44.835" cy="47.6851" r="2" fill="#D9D9D9"/>
<circle opacity="0.4" cx="44.835" cy="43.6851" r="2" fill="#D9D9D9"/>
<circle opacity="0.4" cx="40.835" cy="47.6851" r="2" fill="#D9D9D9"/>
<circle opacity="0.4" cx="40.835" cy="43.6851" r="2" fill="#D9D9D9"/>
<circle opacity="0.4" cx="29.835" cy="67.6851" r="2" fill="#D9D9D9"/>
<circle opacity="0.4" cx="29.835" cy="71.6851" r="2" fill="#D9D9D9"/>
<circle opacity="0.4" cx="23.835" cy="75.6851" r="2" fill="#D9D9D9"/>
<circle opacity="0.4" cx="68.835" cy="47.6851" r="2" fill="#D9D9D9"/>
<circle cx="87.835" cy="114.685" r="2" fill="#D9D9D9"/>
<circle cx="91.835" cy="114.685" r="2" fill="#D9D9D9"/>
<circle cx="99.835" cy="114.685" r="2" fill="#D9D9D9"/>
<circle cx="103.835" cy="114.685" r="2" fill="#D9D9D9"/>
<circle cx="107.835" cy="114.685" r="2" fill="#D9D9D9"/>
<circle cx="111.835" cy="114.685" r="2" fill="#D9D9D9"/>
<circle cx="111.835" cy="118.685" r="2" fill="#D9D9D9"/>
<circle cx="111.835" cy="122.685" r="2" fill="#D9D9D9"/>
<circle cx="107.835" cy="122.685" r="2" fill="#D9D9D9"/>
<circle cx="107.835" cy="118.685" r="2" fill="#D9D9D9"/>
<circle cx="111.835" cy="126.685" r="2" fill="#D9D9D9"/>
<circle cx="123.835" cy="114.685" r="2" fill="#D9D9D9"/>
<circle cx="123.835" cy="126.685" r="2" fill="#D9D9D9"/>
<circle cx="127.835" cy="126.685" r="2" fill="#D9D9D9"/>
<circle cx="127.835" cy="130.685" r="2" fill="#D9D9D9"/>
<circle cx="123.835" cy="130.685" r="2" fill="#D9D9D9"/>
<circle cx="119.835" cy="114.685" r="2" fill="#D9D9D9"/>
<circle cx="123.835" cy="102.685" r="2" fill="#D9D9D9"/>
<circle cx="123.835" cy="106.685" r="2" fill="#D9D9D9"/>
<circle cx="127.835" cy="106.685" r="2" fill="#D9D9D9"/>
<circle cx="130.835" cy="102.685" r="2" fill="#D9D9D9"/>
<circle cx="134.835" cy="102.685" r="2" fill="#D9D9D9"/>
<circle cx="138.835" cy="102.685" r="2" fill="#D9D9D9"/>
<circle cx="130.835" cy="98.6851" r="2" fill="#D9D9D9"/>
<circle cx="131.835" cy="90.6851" r="2" fill="#D9D9D9"/>
<circle cx="135.835" cy="90.6851" r="2" fill="#D9D9D9"/>
<circle cx="135.835" cy="86.6851" r="2" fill="#D9D9D9"/>
<circle cx="146.835" cy="86.6851" r="2" fill="#D9D9D9"/>
<circle cx="150.835" cy="90.6851" r="2" fill="#D9D9D9"/>
<circle cx="150.835" cy="94.6851" r="2" fill="#D9D9D9"/>
<circle cx="150.835" cy="98.6851" r="2" fill="#D9D9D9"/>
<circle cx="146.835" cy="82.6851" r="2" fill="#D9D9D9"/>
<circle cx="150.835" cy="75.6851" r="2" fill="#D9D9D9"/>
<circle opacity="0.4" cx="127.835" cy="114.685" r="2" fill="#D9D9D9"/>
<circle opacity="0.4" cx="126.835" cy="98.6851" r="2" fill="#D9D9D9"/>
<circle opacity="0.4" cx="131.835" cy="114.685" r="2" fill="#D9D9D9"/>
<circle opacity="0.4" cx="131.835" cy="126.685" r="2" fill="#D9D9D9"/>
<circle opacity="0.4" cx="127.835" cy="134.685" r="2" fill="#D9D9D9"/>
<circle opacity="0.4" cx="119.835" cy="130.685" r="2" fill="#D9D9D9"/>
<circle opacity="0.4" cx="115.835" cy="130.685" r="2" fill="#D9D9D9"/>
<circle opacity="0.4" cx="103.835" cy="118.685" r="2" fill="#D9D9D9"/>
<circle opacity="0.4" cx="103.835" cy="122.685" r="2" fill="#D9D9D9"/>
<circle opacity="0.4" cx="107.835" cy="126.685" r="2" fill="#D9D9D9"/>
<circle opacity="0.4" cx="107.835" cy="130.685" r="2" fill="#D9D9D9"/>
<circle opacity="0.4" cx="131.835" cy="122.685" r="2" fill="#D9D9D9"/>
<circle opacity="0.4" cx="135.835" cy="122.685" r="2" fill="#D9D9D9"/>
<circle opacity="0.4" cx="135.835" cy="126.685" r="2" fill="#D9D9D9"/>
<circle opacity="0.4" cx="135.835" cy="118.685" r="2" fill="#D9D9D9"/>
<circle opacity="0.4" cx="135.835" cy="114.685" r="2" fill="#D9D9D9"/>
<circle opacity="0.4" cx="150.835" cy="86.6851" r="2" fill="#D9D9D9"/>
<circle opacity="0.4" cx="134.835" cy="106.685" r="2" fill="#D9D9D9"/>
<circle opacity="0.4" cx="138.835" cy="106.685" r="2" fill="#D9D9D9"/>
<circle opacity="0.4" cx="138.835" cy="83.6851" r="2" fill="#D9D9D9"/>
<circle opacity="0.4" cx="146.835" cy="102.685" r="2" fill="#D9D9D9"/>
<circle opacity="0.4" cx="138.835" cy="98.6851" r="2" fill="#D9D9D9"/>
<circle opacity="0.4" cx="142.835" cy="94.6851" r="2" fill="#D9D9D9"/>
<circle opacity="0.4" cx="111.835" cy="90.6851" r="2" fill="#D9D9D9"/>
<circle opacity="0.4" cx="123.835" cy="90.6851" r="2" fill="#D9D9D9"/>
<circle opacity="0.4" cx="127.835" cy="90.6851" r="2" fill="#D9D9D9"/>
<circle cx="142.949" cy="114.685" r="2" fill="#D9D9D9"/>
<circle cx="31.835" cy="118.685" r="2" fill="#D9D9D9"/>
<circle cx="35.835" cy="126.685" r="2" fill="#D9D9D9"/>
<circle cx="39.835" cy="126.685" r="2" fill="#D9D9D9"/>
<circle cx="43.835" cy="126.685" r="2" fill="#D9D9D9"/>
<circle cx="43.835" cy="130.685" r="2" fill="#578FF0"/>
<circle cx="43.835" cy="134.685" r="2" fill="#578FF0"/>
<circle cx="47.835" cy="126.685" r="2" fill="#D9D9D9"/>
<circle cx="47.835" cy="130.685" r="2" fill="#578FF0"/>
<circle cx="47.835" cy="134.685" r="2" fill="#D9D9D9"/>
<circle cx="51.835" cy="126.685" r="2" fill="#D9D9D9"/>
<circle cx="51.835" cy="130.685" r="2" fill="#578FF0"/>
<circle cx="51.835" cy="134.685" r="2" fill="#D9D9D9"/>
<circle cx="51.835" cy="138.685" r="2" fill="#D9D9D9"/>
<circle cx="59.835" cy="142.685" r="2" fill="#D9D9D9"/>
<circle cx="55.835" cy="126.685" r="2" fill="#D9D9D9"/>
<circle cx="55.835" cy="130.685" r="2" fill="#D9D9D9"/>
<circle cx="55.835" cy="134.685" r="2" fill="#D9D9D9"/>
<circle cx="55.835" cy="138.685" r="2" fill="#D9D9D9"/>
<circle cx="63.835" cy="142.685" r="2" fill="#D9D9D9"/>
<circle cx="67.835" cy="146.685" r="2" fill="#D9D9D9"/>
<circle cx="75.835" cy="150.685" r="2" fill="#D9D9D9"/>
<circle cx="59.835" cy="126.685" r="2" fill="#578FF0"/>
<circle cx="59.835" cy="130.685" r="2" fill="#578FF0"/>
<circle cx="59.835" cy="134.685" r="2" fill="#D9D9D9"/>
<circle cx="59.835" cy="138.685" r="2" fill="#D9D9D9"/>
<circle cx="67.835" cy="142.685" r="2" fill="#D9D9D9"/>
<circle cx="71.835" cy="146.685" r="2" fill="#D9D9D9"/>
<circle cx="79.835" cy="150.685" r="2" fill="#D9D9D9"/>
<circle cx="63.835" cy="126.685" r="2" fill="#D9D9D9"/>
<circle cx="63.835" cy="130.685" r="2" fill="#578FF0"/>
<circle cx="63.835" cy="134.685" r="2" fill="#D9D9D9"/>
<circle cx="63.835" cy="138.685" r="2" fill="#D9D9D9"/>
<circle cx="71.835" cy="142.685" r="2" fill="#D9D9D9"/>
<circle cx="75.835" cy="146.685" r="2" fill="#D9D9D9"/>
<circle cx="83.835" cy="150.685" r="2" fill="#D9D9D9"/>
<circle cx="67.835" cy="130.685" r="2" fill="#D9D9D9"/>
<circle cx="67.835" cy="134.685" r="2" fill="#D9D9D9"/>
<circle cx="75.835" cy="130.685" r="2" fill="#D9D9D9"/>
<circle cx="75.835" cy="134.685" r="2" fill="#D9D9D9"/>
<circle cx="75.835" cy="138.685" r="2" fill="#578FF0"/>
<circle cx="67.835" cy="138.685" r="2" fill="#D9D9D9"/>
<circle cx="75.835" cy="142.685" r="2" fill="#D9D9D9"/>
<circle cx="79.835" cy="146.685" r="2" fill="#D9D9D9"/>
<circle cx="87.835" cy="150.685" r="2" fill="#D9D9D9"/>
<circle cx="71.835" cy="130.685" r="2" fill="#D9D9D9"/>
<circle cx="71.835" cy="134.685" r="2" fill="#D9D9D9"/>
<circle cx="79.835" cy="130.685" r="2" fill="#D9D9D9"/>
<circle cx="79.835" cy="134.685" r="2" fill="#D9D9D9"/>
<circle cx="71.835" cy="138.685" r="2" fill="#D9D9D9"/>
<circle cx="79.835" cy="142.685" r="2" fill="#D9D9D9"/>
<circle cx="83.835" cy="146.685" r="2" fill="#D9D9D9"/>
<circle cx="91.835" cy="150.685" r="2" fill="#D9D9D9"/>
<circle cx="75.835" cy="126.685" r="2" fill="#578FF0"/>
<circle cx="79.835" cy="126.685" r="2" fill="#578FF0"/>
<circle cx="83.835" cy="126.685" r="2" fill="#D9D9D9"/>
<circle cx="83.835" cy="130.685" r="2" fill="#D9D9D9"/>
<circle cx="87.835" cy="126.685" r="2" fill="#D9D9D9"/>
<circle cx="87.835" cy="130.685" r="2" fill="#D9D9D9"/>
<circle cx="87.835" cy="134.685" r="2" fill="#D9D9D9"/>
<circle cx="83.835" cy="138.685" r="2" fill="#D9D9D9"/>
<circle cx="83.835" cy="142.685" r="2" fill="#578FF0"/>
<circle cx="87.835" cy="146.685" r="2" fill="#578FF0"/>
<circle cx="91.835" cy="126.685" r="2" fill="#D9D9D9"/>
<circle cx="91.835" cy="130.685" r="2" fill="#578FF0"/>
<circle cx="95.835" cy="126.685" r="2" fill="#D9D9D9"/>
<circle cx="95.835" cy="130.685" r="2" fill="#D9D9D9"/>
<circle cx="91.835" cy="134.685" r="2" fill="#D9D9D9"/>
<circle cx="103.835" cy="134.685" r="2" fill="#D9D9D9"/>
<circle cx="87.835" cy="138.685" r="2" fill="#D9D9D9"/>
<circle cx="87.835" cy="142.685" r="2" fill="#578FF0"/>
<circle cx="91.835" cy="146.685" r="2" fill="#578FF0"/>
<circle cx="99.835" cy="126.685" r="2" fill="#D9D9D9"/>
<circle cx="99.835" cy="130.685" r="2" fill="#D9D9D9"/>
<circle cx="95.835" cy="134.685" r="2" fill="#D9D9D9"/>
<circle cx="107.835" cy="134.685" r="2" fill="#578FF0"/>
<circle cx="91.835" cy="138.685" r="2" fill="#D9D9D9"/>
<circle cx="91.835" cy="142.685" r="2" fill="#D9D9D9"/>
<circle cx="103.835" cy="138.685" r="2" fill="#D9D9D9"/>
<circle cx="103.835" cy="142.685" r="2" fill="#D9D9D9"/>
<circle cx="103.835" cy="146.685" r="2" fill="#D9D9D9"/>
<circle cx="103.835" cy="150.685" r="2" fill="#D9D9D9"/>
<circle cx="119.835" cy="138.685" r="2" fill="#D9D9D9"/>
<circle cx="99.835" cy="134.685" r="2" fill="#D9D9D9"/>
<circle cx="111.835" cy="134.685" r="2" fill="#578FF0"/>
<circle cx="99.835" cy="138.685" r="2" fill="#D9D9D9"/>
<circle cx="99.835" cy="142.685" r="2" fill="#D9D9D9"/>
<circle cx="99.835" cy="146.685" r="2" fill="#D9D9D9"/>
<circle cx="99.835" cy="150.685" r="2" fill="#D9D9D9"/>
<circle cx="115.835" cy="138.685" r="2" fill="#D9D9D9"/>
<circle cx="115.835" cy="142.685" r="2" fill="#D9D9D9"/>
<circle cx="111.835" cy="138.685" r="2" fill="#578FF0"/>
<circle cx="111.835" cy="142.685" r="2" fill="#578FF0"/>
<circle cx="95.835" cy="138.685" r="2" fill="#D9D9D9"/>
<circle cx="95.835" cy="142.685" r="2" fill="#D9D9D9"/>
<circle cx="95.835" cy="146.685" r="2" fill="#D9D9D9"/>
<circle cx="95.835" cy="150.685" r="2" fill="#D9D9D9"/>
<circle cx="107.835" cy="138.685" r="2" fill="#D9D9D9"/>
<circle cx="107.835" cy="142.685" r="2" fill="#578FF0"/>
<circle cx="107.835" cy="146.685" r="2" fill="#578FF0"/>
<circle cx="123.835" cy="138.685" r="2" fill="#D9D9D9"/>
<circle cx="39.835" cy="118.685" r="2" fill="#D9D9D9"/>
<circle cx="55.835" cy="118.685" r="2" fill="#D9D9D9"/>
<circle cx="35.835" cy="118.685" r="2" fill="#D9D9D9"/>
<circle cx="43.835" cy="118.685" r="2" fill="#D9D9D9"/>
<circle cx="79.835" cy="118.685" r="2" fill="#578FF0"/>
<circle cx="83.835" cy="118.685" r="2" fill="#578FF0"/>
<circle cx="87.835" cy="118.685" r="2" fill="#D9D9D9"/>
<circle cx="91.835" cy="118.685" r="2" fill="#D9D9D9"/>
<circle cx="95.835" cy="118.685" r="2" fill="#578FF0"/>
<circle cx="31.835" cy="106.685" r="2" fill="#D9D9D9"/>
<circle opacity="0.4" cx="35.835" cy="106.685" r="2" fill="#D9D9D9"/>
<circle opacity="0.4" cx="39.835" cy="106.685" r="2" fill="#D9D9D9"/>
<circle cx="43.835" cy="106.685" r="2" fill="#D9D9D9"/>
<circle cx="47.835" cy="106.685" r="2" fill="#D9D9D9"/>
<circle opacity="0.4" cx="51.835" cy="106.685" r="2" fill="#D9D9D9"/>
<circle cx="55.835" cy="106.685" r="2" fill="#D9D9D9"/>
<circle opacity="0.4" cx="59.835" cy="106.685" r="2" fill="#D9D9D9"/>
<circle cx="63.835" cy="106.685" r="2" fill="#D9D9D9"/>
<circle cx="67.835" cy="106.685" r="2" fill="#D9D9D9"/>
<circle opacity="0.4" cx="71.835" cy="106.685" r="2" fill="#D9D9D9"/>
<circle cx="75.835" cy="106.685" r="2" fill="#D9D9D9"/>
<circle opacity="0.4" cx="79.835" cy="106.685" r="2" fill="#D9D9D9"/>
<circle cx="83.835" cy="106.685" r="2" fill="#D9D9D9"/>
<circle cx="87.835" cy="106.685" r="2" fill="#D9D9D9"/>
<circle cx="91.835" cy="106.685" r="2" fill="#D9D9D9"/>
<circle cx="95.835" cy="106.685" r="2" fill="#D9D9D9"/>
<circle opacity="0.4" cx="99.835" cy="106.685" r="2" fill="#D9D9D9"/>
<circle cx="103.835" cy="106.685" r="2" fill="#D9D9D9"/>
<circle cx="107.835" cy="106.685" r="2" fill="#D9D9D9"/>
<circle cx="111.835" cy="106.685" r="2" fill="#D9D9D9"/>
<circle cx="2" cy="2" r="2" transform="matrix(-1 0 0 1 121.835 100.685)" fill="#D9D9D9"/>
<circle opacity="0.4" cx="2" cy="2" r="2" transform="matrix(-1 0 0 1 117.835 100.685)" fill="#D9D9D9"/>
<circle opacity="0.4" cx="2" cy="2" r="2" transform="matrix(-1 0 0 1 113.835 100.685)" fill="#D9D9D9"/>
<circle cx="2" cy="2" r="2" transform="matrix(-1 0 0 1 109.835 100.685)" fill="#D9D9D9"/>
<circle cx="2" cy="2" r="2" transform="matrix(-1 0 0 1 105.835 100.685)" fill="#D9D9D9"/>
<circle opacity="0.4" cx="2" cy="2" r="2" transform="matrix(-1 0 0 1 101.835 100.685)" fill="#D9D9D9"/>
<circle cx="2" cy="2" r="2" transform="matrix(-1 0 0 1 97.835 100.685)" fill="#D9D9D9"/>
<circle opacity="0.4" cx="2" cy="2" r="2" transform="matrix(-1 0 0 1 93.835 100.685)" fill="#D9D9D9"/>
<circle cx="2" cy="2" r="2" transform="matrix(-1 0 0 1 89.835 100.685)" fill="#D9D9D9"/>
<circle cx="2" cy="2" r="2" transform="matrix(-1 0 0 1 85.835 100.685)" fill="#D9D9D9"/>
<circle opacity="0.4" cx="2" cy="2" r="2" transform="matrix(-1 0 0 1 81.835 100.685)" fill="#D9D9D9"/>
<circle cx="2" cy="2" r="2" transform="matrix(-1 0 0 1 77.835 100.685)" fill="#D9D9D9"/>
<circle cx="2" cy="2" r="2" transform="matrix(-1 0 0 1 73.835 100.685)" fill="#D9D9D9"/>
<circle opacity="0.4" cx="2" cy="2" r="2" transform="matrix(-1 0 0 1 69.835 100.685)" fill="#D9D9D9"/>
<circle opacity="0.4" cx="2" cy="2" r="2" transform="matrix(-1 0 0 1 65.835 100.685)" fill="#D9D9D9"/>
<circle cx="2" cy="2" r="2" transform="matrix(-1 0 0 1 61.835 100.685)" fill="#D9D9D9"/>
<circle cx="2" cy="2" r="2" transform="matrix(-1 0 0 1 57.835 100.685)" fill="#D9D9D9"/>
<circle cx="2" cy="2" r="2" transform="matrix(-1 0 0 1 53.835 100.685)" fill="#D9D9D9"/>
<circle cx="2" cy="2" r="2" transform="matrix(-1 0 0 1 49.835 100.685)" fill="#D9D9D9"/>
<circle opacity="0.4" cx="2" cy="2" r="2" transform="matrix(-1 0 0 1 45.835 100.685)" fill="#D9D9D9"/>
<circle cx="2" cy="2" r="2" transform="matrix(-1 0 0 1 41.835 100.685)" fill="#D9D9D9"/>
<circle cx="2" cy="2" r="2" transform="matrix(-1 0 0 1 37.835 100.685)" fill="#D9D9D9"/>
<circle cx="2" cy="2" r="2" transform="matrix(-1 0 0 1 33.835 100.685)" fill="#D9D9D9"/>
<circle cx="2" cy="2" r="2" transform="matrix(-1 0 0 1 121.835 96.6851)" fill="#D9D9D9"/>
<circle opacity="0.4" cx="2" cy="2" r="2" transform="matrix(-1 0 0 1 117.835 96.6851)" fill="#D9D9D9"/>
<circle opacity="0.4" cx="2" cy="2" r="2" transform="matrix(-1 0 0 1 113.835 96.6851)" fill="#D9D9D9"/>
<circle cx="2" cy="2" r="2" transform="matrix(-1 0 0 1 109.835 96.6851)" fill="#D9D9D9"/>
<circle cx="2" cy="2" r="2" transform="matrix(-1 0 0 1 105.835 96.6851)" fill="#D9D9D9"/>
<circle opacity="0.4" cx="2" cy="2" r="2" transform="matrix(-1 0 0 1 101.835 96.6851)" fill="#D9D9D9"/>
<circle cx="2" cy="2" r="2" transform="matrix(-1 0 0 1 97.835 96.6851)" fill="#D9D9D9"/>
<circle opacity="0.4" cx="2" cy="2" r="2" transform="matrix(-1 0 0 1 93.835 96.6851)" fill="#D9D9D9"/>
<circle cx="2" cy="2" r="2" transform="matrix(-1 0 0 1 89.835 96.6851)" fill="#D9D9D9"/>
<circle cx="2" cy="2" r="2" transform="matrix(-1 0 0 1 85.835 96.6851)" fill="#D9D9D9"/>
<circle opacity="0.4" cx="2" cy="2" r="2" transform="matrix(-1 0 0 1 81.835 96.6851)" fill="#D9D9D9"/>
<circle cx="2" cy="2" r="2" transform="matrix(-1 0 0 1 77.835 96.6851)" fill="#D9D9D9"/>
<circle cx="2" cy="2" r="2" transform="matrix(-1 0 0 1 73.835 96.6851)" fill="#D9D9D9"/>
<circle cx="2" cy="2" r="2" transform="matrix(-1 0 0 1 69.835 96.6851)" fill="#D9D9D9"/>
<circle opacity="0.4" cx="2" cy="2" r="2" transform="matrix(-1 0 0 1 65.835 96.6851)" fill="#D9D9D9"/>
<circle cx="2" cy="2" r="2" transform="matrix(-1 0 0 1 61.835 96.6851)" fill="#D9D9D9"/>
<circle cx="2" cy="2" r="2" transform="matrix(-1 0 0 1 57.835 96.6851)" fill="#D9D9D9"/>
<circle cx="2" cy="2" r="2" transform="matrix(-1 0 0 1 53.835 96.6851)" fill="#D9D9D9"/>
<circle cx="2" cy="2" r="2" transform="matrix(-1 0 0 1 49.835 96.6851)" fill="#D9D9D9"/>
<circle opacity="0.4" cx="2" cy="2" r="2" transform="matrix(-1 0 0 1 45.835 96.6851)" fill="#D9D9D9"/>
<circle cx="2" cy="2" r="2" transform="matrix(-1 0 0 1 41.835 96.6851)" fill="#D9D9D9"/>
<circle cx="2" cy="2" r="2" transform="matrix(-1 0 0 1 37.835 96.6851)" fill="#D9D9D9"/>
<circle cx="2" cy="2" r="2" transform="matrix(-1 0 0 1 33.835 96.6851)" fill="#D9D9D9"/>
<circle cx="2" cy="2" r="2" transform="matrix(-1 0 0 1 121.835 92.6851)" fill="#D9D9D9"/>
<circle opacity="0.4" cx="2" cy="2" r="2" transform="matrix(-1 0 0 1 117.835 92.6851)" fill="#D9D9D9"/>
<circle opacity="0.4" cx="2" cy="2" r="2" transform="matrix(-1 0 0 1 113.835 92.6851)" fill="#D9D9D9"/>
<circle cx="2" cy="2" r="2" transform="matrix(-1 0 0 1 109.835 92.6851)" fill="#D9D9D9"/>
<circle cx="2" cy="2" r="2" transform="matrix(-1 0 0 1 105.835 92.6851)" fill="#D9D9D9"/>
<circle opacity="0.4" cx="2" cy="2" r="2" transform="matrix(-1 0 0 1 101.835 92.6851)" fill="#D9D9D9"/>
<circle cx="2" cy="2" r="2" transform="matrix(-1 0 0 1 97.835 92.6851)" fill="#D9D9D9"/>
<circle opacity="0.4" cx="2" cy="2" r="2" transform="matrix(-1 0 0 1 93.835 92.6851)" fill="#D9D9D9"/>
<circle cx="2" cy="2" r="2" transform="matrix(-1 0 0 1 89.835 92.6851)" fill="#D9D9D9"/>
<circle cx="2" cy="2" r="2" transform="matrix(-1 0 0 1 85.835 92.6851)" fill="#D9D9D9"/>
<circle cx="2" cy="2" r="2" transform="matrix(-1 0 0 1 81.835 92.6851)" fill="#D9D9D9"/>
<circle cx="2" cy="2" r="2" transform="matrix(-1 0 0 1 77.835 92.6851)" fill="#D9D9D9"/>
<circle opacity="0.4" cx="2" cy="2" r="2" transform="matrix(-1 0 0 1 73.835 92.6851)" fill="#D9D9D9"/>
<circle opacity="0.4" cx="2" cy="2" r="2" transform="matrix(-1 0 0 1 69.835 92.6851)" fill="#D9D9D9"/>
<circle cx="2" cy="2" r="2" transform="matrix(-1 0 0 1 65.835 92.6851)" fill="#D9D9D9"/>
<circle cx="2" cy="2" r="2" transform="matrix(-1 0 0 1 61.835 92.6851)" fill="#D9D9D9"/>
<circle cx="2" cy="2" r="2" transform="matrix(-1 0 0 1 57.835 92.6851)" fill="#D9D9D9"/>
<circle cx="2" cy="2" r="2" transform="matrix(-1 0 0 1 53.835 92.6851)" fill="#D9D9D9"/>
<circle cx="2" cy="2" r="2" transform="matrix(-1 0 0 1 49.835 92.6851)" fill="#D9D9D9"/>
<circle opacity="0.4" cx="2" cy="2" r="2" transform="matrix(-1 0 0 1 45.835 92.6851)" fill="#D9D9D9"/>
<circle cx="2" cy="2" r="2" transform="matrix(-1 0 0 1 41.835 92.6851)" fill="#D9D9D9"/>
<circle cx="2" cy="2" r="2" transform="matrix(-1 0 0 1 37.835 92.6851)" fill="#D9D9D9"/>
<circle cx="2" cy="2" r="2" transform="matrix(-1 0 0 1 33.835 92.6851)" fill="#D9D9D9"/>
<circle cx="2" cy="2" r="2" transform="matrix(-1 0 0 1 144.835 77.6851)" fill="#D9D9D9"/>
<circle opacity="0.4" cx="2" cy="2" r="2" transform="matrix(-1 0 0 1 140.835 77.6851)" fill="#D9D9D9"/>
<circle opacity="0.4" cx="2" cy="2" r="2" transform="matrix(-1 0 0 1 136.835 77.6851)" fill="#D9D9D9"/>
<circle cx="2" cy="2" r="2" transform="matrix(-1 0 0 1 132.835 77.6851)" fill="#D9D9D9"/>
<circle cx="2" cy="2" r="2" transform="matrix(-1 0 0 1 128.835 77.6851)" fill="#D9D9D9"/>
<circle opacity="0.4" cx="2" cy="2" r="2" transform="matrix(-1 0 0 1 124.835 77.6851)" fill="#D9D9D9"/>
<circle cx="2" cy="2" r="2" transform="matrix(-1 0 0 1 120.835 77.6851)" fill="#D9D9D9"/>
<circle cx="2" cy="2" r="2" transform="matrix(-1 0 0 1 116.835 77.6851)" fill="#D9D9D9"/>
<circle cx="2" cy="2" r="2" transform="matrix(-1 0 0 1 112.835 77.6851)" fill="#D9D9D9"/>
<circle cx="2" cy="2" r="2" transform="matrix(-1 0 0 1 108.835 77.6851)" fill="#D9D9D9"/>
<circle opacity="0.4" cx="2" cy="2" r="2" transform="matrix(-1 0 0 1 104.835 77.6851)" fill="#D9D9D9"/>
<circle opacity="0.4" cx="2" cy="2" r="2" transform="matrix(-1 0 0 1 100.835 77.6851)" fill="#D9D9D9"/>
<circle cx="2" cy="2" r="2" transform="matrix(-1 0 0 1 96.835 77.6851)" fill="#D9D9D9"/>
<circle cx="2" cy="2" r="2" transform="matrix(-1 0 0 1 92.835 77.6851)" fill="#D9D9D9"/>
<circle cx="2" cy="2" r="2" transform="matrix(-1 0 0 1 88.835 77.6851)" fill="#D9D9D9"/>
<circle cx="2" cy="2" r="2" transform="matrix(-1 0 0 1 84.835 77.6851)" fill="#D9D9D9"/>
<circle cx="2" cy="2" r="2" transform="matrix(-1 0 0 1 80.835 77.6851)" fill="#D9D9D9"/>
<circle opacity="0.4" cx="2" cy="2" r="2" transform="matrix(-1 0 0 1 76.835 77.6851)" fill="#D9D9D9"/>
<circle cx="2" cy="2" r="2" transform="matrix(-1 0 0 1 72.835 77.6851)" fill="#D9D9D9"/>
<circle cx="2" cy="2" r="2" transform="matrix(-1 0 0 1 68.835 77.6851)" fill="#D9D9D9"/>
<circle cx="2" cy="2" r="2" transform="matrix(-1 0 0 1 64.835 77.6851)" fill="#D9D9D9"/>
<circle cx="34.835" cy="83.6851" r="2" fill="#D9D9D9"/>
<circle opacity="0.4" cx="38.835" cy="83.6851" r="2" fill="#D9D9D9"/>
<circle opacity="0.4" cx="42.835" cy="83.6851" r="2" fill="#D9D9D9"/>
<circle cx="46.835" cy="83.6851" r="2" fill="#D9D9D9"/>
<circle cx="50.835" cy="83.6851" r="2" fill="#D9D9D9"/>
<circle opacity="0.4" cx="54.835" cy="83.6851" r="2" fill="#D9D9D9"/>
<circle cx="58.835" cy="83.6851" r="2" fill="#D9D9D9"/>
<circle opacity="0.4" cx="62.835" cy="83.6851" r="2" fill="#D9D9D9"/>
<circle cx="66.835" cy="83.6851" r="2" fill="#D9D9D9"/>
<circle cx="70.835" cy="83.6851" r="2" fill="#D9D9D9"/>
<circle cx="74.835" cy="83.6851" r="2" fill="#D9D9D9"/>
<circle opacity="0.4" cx="78.835" cy="83.6851" r="2" fill="#D9D9D9"/>
<circle opacity="0.4" cx="82.835" cy="83.6851" r="2" fill="#D9D9D9"/>
<circle cx="86.835" cy="83.6851" r="2" fill="#D9D9D9"/>
<circle cx="90.835" cy="83.6851" r="2" fill="#D9D9D9"/>
<circle cx="94.835" cy="83.6851" r="2" fill="#D9D9D9"/>
<circle cx="98.835" cy="83.6851" r="2" fill="#D9D9D9"/>
<circle cx="102.835" cy="83.6851" r="2" fill="#D9D9D9"/>
<circle opacity="0.4" cx="106.835" cy="83.6851" r="2" fill="#D9D9D9"/>
<circle cx="74.835" cy="75.6851" r="2" fill="#D9D9D9"/>
<circle opacity="0.4" cx="78.835" cy="75.6851" r="2" fill="#D9D9D9"/>
<circle opacity="0.4" cx="82.835" cy="75.6851" r="2" fill="#D9D9D9"/>
<circle cx="86.835" cy="75.6851" r="2" fill="#D9D9D9"/>
<circle cx="90.835" cy="75.6851" r="2" fill="#D9D9D9"/>
<circle opacity="0.4" cx="94.835" cy="75.6851" r="2" fill="#D9D9D9"/>
<circle cx="98.835" cy="75.6851" r="2" fill="#D9D9D9"/>
<circle opacity="0.4" cx="102.835" cy="75.6851" r="2" fill="#D9D9D9"/>
<circle cx="106.835" cy="75.6851" r="2" fill="#D9D9D9"/>
<circle cx="110.835" cy="75.6851" r="2" fill="#D9D9D9"/>
<circle cx="114.835" cy="75.6851" r="2" fill="#D9D9D9"/>
<circle cx="118.835" cy="75.6851" r="2" fill="#D9D9D9"/>
<circle opacity="0.4" cx="122.835" cy="75.6851" r="2" fill="#D9D9D9"/>
<circle opacity="0.4" cx="126.835" cy="75.6851" r="2" fill="#D9D9D9"/>
<circle cx="130.835" cy="75.6851" r="2" fill="#D9D9D9"/>
<circle cx="134.835" cy="75.6851" r="2" fill="#D9D9D9"/>
<circle cx="138.835" cy="75.6851" r="2" fill="#D9D9D9"/>
<circle cx="142.835" cy="75.6851" r="2" fill="#D9D9D9"/>
<circle cx="146.835" cy="75.6851" r="2" fill="#D9D9D9"/>
<circle cx="50.835" cy="54.6851" r="2" fill="#D9D9D9"/>
<circle opacity="0.4" cx="54.835" cy="54.6851" r="2" fill="#D9D9D9"/>
<circle opacity="0.4" cx="58.835" cy="54.6851" r="2" fill="#D9D9D9"/>
<circle cx="62.835" cy="54.6851" r="2" fill="#D9D9D9"/>
<circle cx="66.835" cy="54.6851" r="2" fill="#D9D9D9"/>
<circle opacity="0.4" cx="70.835" cy="54.6851" r="2" fill="#D9D9D9"/>
<circle cx="74.835" cy="54.6851" r="2" fill="#D9D9D9"/>
<circle opacity="0.4" cx="78.835" cy="54.6851" r="2" fill="#D9D9D9"/>
<circle cx="82.835" cy="54.6851" r="2" fill="#D9D9D9"/>
<circle cx="90.835" cy="54.6851" r="2" fill="#D9D9D9"/>
<circle opacity="0.4" cx="98.835" cy="54.6851" r="2" fill="#D9D9D9"/>
<circle cx="106.835" cy="54.6851" r="2" fill="#D9D9D9"/>
<circle opacity="0.4" cx="110.835" cy="54.6851" r="2" fill="#D9D9D9"/>
<circle cx="114.835" cy="54.6851" r="2" fill="#D9D9D9"/>
<circle cx="118.835" cy="54.6851" r="2" fill="#D9D9D9"/>
<circle cx="122.835" cy="54.6851" r="2" fill="#D9D9D9"/>
<circle cx="105.835" cy="59.6851" r="2" fill="#D9D9D9"/>
<circle opacity="0.4" cx="109.835" cy="59.6851" r="2" fill="#D9D9D9"/>
<circle opacity="0.4" cx="113.835" cy="59.6851" r="2" fill="#D9D9D9"/>
<circle cx="117.835" cy="59.6851" r="2" fill="#D9D9D9"/>
<circle cx="121.835" cy="59.6851" r="2" fill="#D9D9D9"/>
<circle opacity="0.4" cx="125.835" cy="59.6851" r="2" fill="#D9D9D9"/>
<circle cx="129.835" cy="59.6851" r="2" fill="#D9D9D9"/>
<circle opacity="0.4" cx="133.835" cy="59.6851" r="2" fill="#D9D9D9"/>
<circle cx="137.835" cy="59.6851" r="2" fill="#D9D9D9"/>
<circle cx="141.835" cy="59.6851" r="2" fill="#D9D9D9"/>
<circle cx="145.835" cy="59.6851" r="2" fill="#D9D9D9"/>
<circle cx="109.835" cy="63.6851" r="2" fill="#D9D9D9"/>
<circle opacity="0.4" cx="113.835" cy="63.6851" r="2" fill="#D9D9D9"/>
<circle opacity="0.4" cx="117.835" cy="63.6851" r="2" fill="#D9D9D9"/>
<circle cx="121.835" cy="63.6851" r="2" fill="#D9D9D9"/>
<circle cx="125.835" cy="63.6851" r="2" fill="#D9D9D9"/>
<circle opacity="0.4" cx="129.835" cy="63.6851" r="2" fill="#D9D9D9"/>
<circle cx="133.835" cy="63.6851" r="2" fill="#D9D9D9"/>
<circle opacity="0.4" cx="137.835" cy="63.6851" r="2" fill="#D9D9D9"/>
<circle cx="141.835" cy="63.6851" r="2" fill="#D9D9D9"/>
<circle cx="145.835" cy="63.6851" r="2" fill="#D9D9D9"/>
<circle cx="149.835" cy="63.6851" r="2" fill="#D9D9D9"/>
<circle cx="103.835" cy="69.6851" r="2" fill="#D9D9D9"/>
<circle opacity="0.4" cx="107.835" cy="69.6851" r="2" fill="#D9D9D9"/>
<circle opacity="0.4" cx="111.835" cy="69.6851" r="2" fill="#D9D9D9"/>
<circle cx="115.835" cy="69.6851" r="2" fill="#D9D9D9"/>
<circle cx="119.835" cy="69.6851" r="2" fill="#D9D9D9"/>
<circle opacity="0.4" cx="123.835" cy="69.6851" r="2" fill="#D9D9D9"/>
<circle cx="127.835" cy="69.6851" r="2" fill="#D9D9D9"/>
<circle opacity="0.4" cx="131.835" cy="69.6851" r="2" fill="#D9D9D9"/>
<circle cx="135.835" cy="69.6851" r="2" fill="#D9D9D9"/>
<circle cx="139.835" cy="69.6851" r="2" fill="#D9D9D9"/>
<circle cx="143.835" cy="69.6851" r="2" fill="#D9D9D9"/>
<circle cx="50.835" cy="65.2102" r="2" fill="#D9D9D9"/>
<circle opacity="0.4" cx="54.835" cy="65.2102" r="2" fill="#D9D9D9"/>
<circle opacity="0.4" cx="58.835" cy="65.2102" r="2" fill="#D9D9D9"/>
<circle cx="46.835" cy="79.6851" r="2" fill="#D9D9D9"/>
<circle opacity="0.4" cx="50.835" cy="79.6851" r="2" fill="#D9D9D9"/>
<circle opacity="0.4" cx="54.835" cy="79.6851" r="2" fill="#D9D9D9"/>
<circle opacity="0.4" cx="38.835" cy="65.2102" r="2" fill="#D9D9D9"/>
<circle cx="42.835" cy="65.2102" r="2" fill="#D9D9D9"/>
<circle opacity="0.4" cx="33.835" cy="67.6851" r="2" fill="#D9D9D9"/>
<circle cx="33.835" cy="71.6851" r="2" fill="#D9D9D9"/>
</svg>
