<svg width="176" height="56" viewBox="0 0 176 56" fill="none" xmlns="http://www.w3.org/2000/svg">
<path fill-rule="evenodd" clip-rule="evenodd" d="M28.5135 44.4094C27.7272 44.4313 26.9628 44.3657 26.1765 44.2563C24.0579 43.9499 22.0704 43.2717 20.2357 42.1558C16.1733 39.7053 13.5742 36.1389 12.504 31.4566C12.2638 30.4064 12.1545 29.3342 12.1545 28.2621C12.1327 23.9737 13.5305 20.2104 16.3699 17.0159C18.8379 14.2591 21.8956 12.5743 25.4994 11.8742C26.5041 11.6773 27.5088 11.5679 28.5135 11.6116C28.5135 13.2526 28.5135 14.8717 28.5135 16.5127C28.4698 16.5346 28.4261 16.5565 28.3824 16.6002C27.7927 17.0159 27.203 17.4535 26.6352 17.913C25.3465 18.9632 24.1234 20.0791 23.0969 21.4138C21.7209 23.186 20.8036 25.1333 20.6726 27.4307C20.607 28.5247 20.7381 29.5968 21.0875 30.6252C21.9393 33.1851 24.5821 35.8325 28.2951 35.8982C28.5135 35.8982 28.5572 35.9419 28.5572 36.1826C28.5353 37.2985 28.5353 39.5302 28.5353 39.5302C28.5353 39.5302 28.5353 39.6615 28.5353 39.7271C28.5135 41.2806 28.5135 42.8341 28.5135 44.4094Z" fill="#0099FF"/>
<path fill-rule="evenodd" clip-rule="evenodd" d="M28.5132 16.4906C28.5132 16.4906 28.5132 13.2305 28.5132 11.5895C29.4087 11.5677 30.2823 11.6552 31.156 11.7865C32.7941 12.049 34.3666 12.5304 35.8518 13.2962C38.9314 14.8934 41.3557 17.1689 42.9938 20.2758C43.933 22.0699 44.5445 23.9735 44.7848 25.9645C45.0687 28.3057 44.8503 30.6249 44.1514 32.8785C43.3433 35.4385 41.9891 37.6921 40.089 39.5956C37.7738 41.893 35.0218 43.3808 31.833 44.0591C30.741 44.2779 29.6271 44.4092 28.5132 44.3873C28.5132 42.812 28.5132 41.2585 28.5132 39.6832C28.5132 39.6175 28.5132 39.5081 28.5132 39.5081C28.5132 39.5081 28.5787 39.4644 28.6006 39.4425C30.3042 38.2391 31.9204 36.9263 33.3182 35.351C34.2356 34.3226 35.0218 33.2286 35.5679 31.9596C36.3323 30.1655 36.6381 28.3276 36.2449 26.3803C35.546 22.8357 32.3791 20.1883 28.7316 20.1008C28.4914 20.1008 28.5132 19.9038 28.5132 19.9038V16.4906Z" fill="#0561E2"/>
<path d="M65.9939 33.1007C65.9939 34.0045 65.8457 34.8654 65.5703 35.7047C65.295 36.544 64.8503 37.2757 64.2996 37.9213C63.7278 38.5669 63.0288 39.0619 62.1817 39.4493C61.3345 39.8151 60.3391 40.0088 59.2378 40.0088C57.4587 40.0088 55.9974 39.5784 54.8749 38.7391C53.7312 37.8998 52.9899 36.5655 52.6299 34.7362L56.3786 33.8324C56.5057 34.5856 56.8022 35.1882 57.2893 35.6401C57.7552 36.092 58.3483 36.3072 59.0472 36.3072C60.1908 36.3072 60.9745 35.9199 61.3769 35.1236C61.7793 34.3489 61.9911 33.2513 61.9911 31.874V16.5728H65.9939V33.1007Z" fill="white"/>
<path d="M88.0613 31.0344C88.0613 32.4118 87.8283 33.66 87.3624 34.7575C86.8964 35.8766 86.2611 36.802 85.4563 37.5767C84.6515 38.3515 83.6984 38.954 82.5971 39.3629C81.4958 39.7934 80.2886 39.987 78.9966 39.987C77.7047 39.987 76.4975 39.7718 75.4173 39.3629C74.316 38.954 73.363 38.3515 72.537 37.5767C71.711 36.802 71.0756 35.8551 70.6309 34.7575C70.1649 33.66 69.9531 32.4118 69.9531 31.0344V16.5725H73.956V30.9053C73.956 31.4648 74.0407 32.0459 74.2101 32.67C74.3796 33.2726 74.6549 33.8536 75.0573 34.3701C75.4385 34.8866 75.968 35.317 76.6246 35.6399C77.2599 35.9842 78.0647 36.1348 79.0178 36.1348C79.9709 36.1348 80.7757 35.9627 81.411 35.6399C82.0464 35.317 82.5759 34.8866 82.9783 34.3701C83.3595 33.8536 83.656 33.2941 83.8255 32.67C83.9949 32.0459 84.0796 31.4648 84.0796 30.9053V16.5725H88.0825V31.0344H88.0613Z" fill="white"/>
<path d="M103.226 21.4792C102.802 20.8551 102.23 20.4032 101.532 20.1019C100.811 19.8006 100.07 19.6715 99.2865 19.6715C98.8206 19.6715 98.3758 19.7361 97.9311 19.8437C97.4863 19.9513 97.1051 20.1234 96.7662 20.3602C96.4062 20.5969 96.1308 20.8982 95.919 21.2855C95.7073 21.6729 95.6014 22.1033 95.6014 22.6198C95.6014 23.3946 95.8555 23.9972 96.4062 24.3845C96.9357 24.7934 97.5922 25.1593 98.3758 25.439C99.1595 25.7403 100.007 26.0416 100.939 26.3214C101.87 26.6012 102.718 26.9885 103.522 27.4835C104.306 27.9785 104.963 28.6456 105.492 29.4419C106.022 30.2597 106.297 31.3572 106.297 32.6915C106.297 33.9182 106.085 34.9942 105.64 35.8981C105.196 36.8235 104.603 37.5767 103.84 38.1793C103.078 38.7819 102.209 39.2338 101.214 39.5351C100.218 39.8364 99.1595 39.987 98.0793 39.987C96.6815 39.987 95.326 39.7503 94.0553 39.2769C92.7634 38.8034 91.6409 38.0071 90.709 36.8881L93.7376 33.9182C94.2247 34.6714 94.8601 35.2525 95.6649 35.6829C96.4697 36.1133 97.2957 36.307 98.1852 36.307C98.6512 36.307 99.1171 36.2424 99.583 36.1133C100.049 35.9842 100.473 35.7905 100.854 35.5323C101.235 35.274 101.532 34.9512 101.764 34.5423C101.997 34.1549 102.125 33.6815 102.125 33.165C102.125 32.3257 101.849 31.68 101.32 31.2281C100.79 30.7762 100.134 30.3888 99.3501 30.0875C98.5664 29.7862 97.6981 29.4849 96.7662 29.2052C95.8343 28.9254 94.966 28.538 94.2035 28.0646C93.4199 27.5911 92.7634 26.9455 92.2339 26.1277C91.7044 25.3099 91.4291 24.2339 91.4291 22.8781C91.4291 21.6944 91.662 20.683 92.1492 19.8221C92.6151 18.9613 93.2505 18.2511 94.0341 17.6701C94.7966 17.1105 95.6861 16.6801 96.6815 16.4003C97.6769 16.1206 98.6935 15.9915 99.7313 15.9915C100.917 15.9915 102.061 16.1851 103.183 16.5295C104.285 16.8953 105.301 17.4979 106.191 18.3372L103.226 21.4792Z" fill="white"/>
<path d="M109.644 16.5725H117.205C118.285 16.5725 119.323 16.6801 120.34 16.8953C121.335 17.1105 122.225 17.4764 122.987 17.9714C123.75 18.4879 124.364 19.155 124.808 19.9943C125.253 20.8551 125.486 21.9096 125.486 23.1794C125.486 24.6213 125.232 25.7834 124.745 26.6657C124.258 27.5481 123.601 28.2367 122.775 28.7102C121.949 29.1836 120.996 29.528 119.895 29.7001C118.794 29.8723 117.671 29.9584 116.485 29.9584H113.626V39.4275H109.623V16.5725H109.644ZM116.062 26.4936C116.633 26.4936 117.226 26.472 117.841 26.429C118.455 26.386 119.027 26.2568 119.535 26.0416C120.043 25.8264 120.467 25.5036 120.806 25.0732C121.123 24.6428 121.293 24.0402 121.293 23.2655C121.293 22.5553 121.145 21.9957 120.848 21.5653C120.551 21.1349 120.17 20.8121 119.704 20.5969C119.238 20.3602 118.709 20.231 118.137 20.1665C117.565 20.1019 117.015 20.0589 116.485 20.0589H113.626V26.4936H116.062Z" fill="white"/>
<path d="M133.173 16.5725H136.626L146.326 39.4275H141.751L139.654 34.198H129.912L127.879 39.4275H123.389L133.173 16.5725ZM138.256 30.7116L134.783 21.4147L131.267 30.7116H138.256Z" fill="white"/>
<path d="M151.197 29.6571L142.746 16.5725H147.766L153.293 25.6758L158.885 16.5725H163.65L155.199 29.6571V39.449H151.197V29.6571Z" fill="white"/>
</svg>
